<svg width="512" height="512" viewBox="0 0 512 512" fill="none" xmlns="http://www.w3.org/2000/svg">
<mask id="mask0_440_3" style="mask-type:alpha" maskUnits="userSpaceOnUse" x="0" y="0" width="512" height="512">
<rect width="512" height="512" rx="134" fill="#D9D9D9"/>
</mask>
<g mask="url(#mask0_440_3)">
<rect width="512" height="512" rx="134" fill="url(#paint0_linear_440_3)"/>
<path opacity="0.3" d="M511.024 0.353516L477.833 33.5449H510.671V34.5449H477.126V161.213H510.671V162.213H477.126V254.836H510.671V255.836H477.126V348.46H510.671V349.46H477.126V476.128H510.671V477.128H477.834L511.024 510.318L510.317 511.025L477.126 477.834V510.672H476.126V477.128H349.458V510.672H348.458V477.128H255.835V510.672H254.835V477.128H162.212V510.672H161.212V477.128H34.543V510.672H33.543V477.835L0.352539 511.025L-0.354492 510.318L32.8359 477.128H-0.000976562V476.128H33.543V349.46H-0.000976562V348.46H33.543V255.836H-0.000976562V254.836H33.543V162.213H-0.000976562V161.213H33.543V34.5449H-0.000976562V33.5449H32.8369L-0.354492 0.353516L0.352539 -0.353516L33.543 32.8369V0H34.543V33.5449H161.212V0H162.212V33.5449H254.835V0H255.835V33.5449H348.458V0H349.458V33.5449H476.126V0H477.126V32.8379L510.317 -0.353516L511.024 0.353516ZM35.25 476.128H161.212V456.222C137.934 445.296 116.865 430.445 98.8584 412.519L35.25 476.128ZM162.212 476.128H234.131C208.657 473.712 184.439 466.985 162.212 456.688V476.128ZM348.458 456.688C326.231 466.986 302.013 473.712 276.538 476.128H348.458V456.688ZM411.811 412.519C393.804 430.444 372.736 445.296 349.458 456.222V476.128H475.42L411.811 412.519ZM162.212 455.586C190.366 468.701 221.746 476.053 254.835 476.126V392.012C219.05 391.884 186.506 378.006 162.212 355.383V455.586ZM348.458 355.382C324.164 378.005 291.62 391.883 255.835 392.012V476.126C288.924 476.053 320.304 468.701 348.458 455.586V355.382ZM34.543 475.421L98.1514 411.812C80.226 393.805 65.3745 372.737 54.4492 349.46H34.543V475.421ZM456.221 349.46C445.295 372.737 430.443 393.805 412.518 411.812L476.126 475.42V349.46H456.221ZM99.5654 411.812C117.381 429.547 138.208 444.26 161.212 455.117V354.441C160.481 353.747 159.758 353.044 159.043 352.334L99.5654 411.812ZM351.626 352.334C350.911 353.044 350.189 353.746 349.458 354.44V455.116C372.462 444.259 393.288 429.547 411.104 411.812L351.626 352.334ZM55.5547 349.46C66.4114 372.463 81.1236 393.289 98.8584 411.104L158.336 351.627C157.626 350.912 156.924 350.19 156.23 349.46H55.5547ZM354.438 349.46C353.745 350.19 353.043 350.912 352.333 351.627L411.811 411.104C429.546 393.289 444.258 372.463 455.115 349.46H354.438ZM162.212 354.01C186.399 376.844 218.977 390.882 254.835 391.012V349.46H162.212V354.01ZM255.835 391.012C291.693 390.882 324.271 376.844 348.458 354.009V349.46H255.835V391.012ZM159.75 351.627C160.234 352.107 160.721 352.583 161.212 353.056V350.166L159.75 351.627ZM349.458 353.055C349.948 352.582 350.436 352.107 350.919 351.627L349.458 350.166V353.055ZM157.616 349.46C158.088 349.95 158.564 350.437 159.043 350.92L160.504 349.46H157.616ZM351.626 350.92C352.106 350.437 352.581 349.95 353.054 349.46H350.166L351.626 350.92ZM34.543 348.46H53.9824C43.6839 326.23 36.9582 302.007 34.543 276.528V348.46ZM34.5449 255.836C34.6182 288.926 41.9699 320.306 55.085 348.46H155.288C132.665 324.166 118.786 291.621 118.658 255.836H34.5449ZM119.658 255.836C119.787 291.694 133.827 324.273 156.662 348.46H161.212V255.836H119.658ZM162.918 348.46H241.582C221.267 345.486 203.061 336.023 189.135 322.242L162.918 348.46ZM349.458 348.46H354.008C376.843 324.273 390.882 291.694 391.011 255.836H349.458V348.46ZM392.011 255.836C391.883 291.621 378.004 324.166 355.381 348.46H455.584C468.699 320.306 476.052 288.926 476.125 255.836H392.011ZM476.126 276.538C473.71 302.013 466.984 326.233 456.687 348.46H476.126V276.538ZM321.534 322.242C307.607 336.023 289.402 345.486 269.087 348.46H347.752L321.534 322.242ZM189.842 321.535C206.555 338.071 229.497 348.322 254.835 348.455V256.543L189.842 321.535ZM255.835 348.455C281.172 348.322 304.114 338.071 320.827 321.535L255.835 256.543V348.455ZM162.212 347.752L188.428 321.535C174.649 307.61 165.187 289.406 162.212 269.094V347.752ZM348.458 269.087C345.484 289.402 336.022 307.608 322.241 321.535L348.458 347.752V269.087ZM321.534 320.828C338.07 304.115 348.322 281.173 348.455 255.836H256.542L321.534 320.828ZM162.215 255.836C162.348 281.173 172.599 304.115 189.135 320.828L254.128 255.836H162.215ZM55.085 162.213C41.97 190.367 34.6183 221.747 34.5449 254.836H118.658C118.787 219.051 132.665 186.507 155.288 162.213H55.085ZM156.662 162.213C133.827 186.4 119.788 218.978 119.658 254.836H161.212V162.213H156.662ZM256.542 254.836H348.455C348.322 229.499 338.069 206.557 321.533 189.844L256.542 254.836ZM349.458 254.836H391.011C390.881 218.978 376.842 186.4 354.007 162.213H349.458V254.836ZM355.382 162.213C378.005 186.507 391.882 219.051 392.011 254.836H476.125C476.052 221.747 468.699 190.367 455.584 162.213H355.382ZM189.135 189.843C172.599 206.556 162.348 229.499 162.215 254.836H254.128L189.135 189.843ZM255.835 254.129L320.826 189.137C304.113 172.601 281.172 162.349 255.835 162.216V254.129ZM254.835 162.216C229.498 162.349 206.555 172.6 189.842 189.136L254.835 254.129V162.216ZM322.241 189.136C336.022 203.062 345.484 221.269 348.458 241.584V162.92L322.241 189.136ZM162.212 241.577C165.187 221.265 174.649 203.061 188.428 189.136L162.212 162.92V241.577ZM34.543 234.143C36.9583 208.665 43.6842 184.443 53.9824 162.213H34.543V234.143ZM456.687 162.213C466.984 184.44 473.71 208.658 476.126 234.133V162.213H456.687ZM269.09 162.213C289.403 165.187 307.607 174.65 321.533 188.43L347.751 162.213H269.09ZM189.135 188.429C203.061 174.649 221.266 165.187 241.579 162.213H162.919L189.135 188.429ZM34.543 161.213H54.4492C65.3747 137.935 80.2265 116.867 98.1523 98.8604L34.543 35.251V161.213ZM98.8594 99.5674C81.1241 117.383 66.4116 138.209 55.5547 161.213H156.23C156.925 160.482 157.627 159.76 158.337 159.045L98.8594 99.5674ZM254.835 119.66C218.977 119.79 186.399 133.828 162.212 156.663V161.213H254.835V119.66ZM255.835 161.213H348.458V156.663C324.271 133.828 291.693 119.79 255.835 119.66V161.213ZM350.165 161.213H353.054C352.581 160.722 352.105 160.235 351.625 159.752L350.165 161.213ZM352.332 159.045C353.042 159.76 353.745 160.482 354.439 161.213H455.115C444.258 138.209 429.545 117.383 411.81 99.5674L352.332 159.045ZM412.517 98.8604C430.443 116.867 445.295 137.935 456.221 161.213H476.126V35.252L412.517 98.8604ZM159.044 159.752C158.564 160.235 158.089 160.723 157.616 161.213H160.505L159.044 159.752ZM349.458 160.506L350.918 159.045C350.435 158.565 349.948 158.089 349.458 157.617V160.506ZM161.212 157.617C160.722 158.09 160.234 158.565 159.751 159.045L161.212 160.506V157.617ZM349.458 156.23C350.189 156.924 350.91 157.628 351.625 158.338L411.103 98.8604C393.287 81.1254 372.462 66.4124 349.458 55.5557V156.23ZM161.212 55.5547C138.208 66.4115 117.382 81.125 99.5664 98.8604L159.044 158.338C159.759 157.628 160.481 156.925 161.212 156.23V55.5547ZM254.835 34.5459C221.746 34.6192 190.366 41.9711 162.212 55.0859V155.289C186.506 132.666 219.05 118.788 254.835 118.66V34.5459ZM255.835 118.66C291.62 118.788 324.164 132.666 348.458 155.289V55.0859C320.304 41.9711 288.924 34.6193 255.835 34.5459V118.66ZM349.458 54.4502C372.735 65.3755 393.803 80.2278 411.81 98.1533L475.419 34.5449H349.458V54.4502ZM98.8594 98.1533C116.866 80.2276 137.934 65.3756 161.212 54.4502V34.5449H35.251L98.8594 98.1533ZM276.527 34.5449C302.006 36.9602 326.228 43.686 348.458 53.9844V34.5449H276.527ZM162.212 53.9834C184.442 43.6853 208.664 36.9601 234.142 34.5449H162.212V53.9834Z" fill="white"/>
<path d="M586.942 340.34C594.532 328.521 606.821 300.308 595.049 287.366C590.755 287.285 587.912 290.801 587.385 293.043C589.565 277.924 583.223 247.956 569.446 239.721C560.683 234.481 559.659 243.443 559.706 250.164C546.227 220.504 518.869 171.983 479.07 180.384C493.956 187.372 503.96 205.115 511.076 219.179C530.526 257.609 537.352 301.079 531.196 343.657C531.192 343.653 531.189 343.653 531.182 343.65C530.814 346.213 530.411 348.775 529.945 351.331C529.85 351.852 529.749 352.376 529.647 352.897C529.289 354.739 528.887 356.568 528.444 358.384C523.697 354.871 518.504 351.761 512.862 349.12C482.539 334.934 449.36 337.926 417.236 346.287C396.366 351.717 375.939 359.418 357.006 366.149C314.431 381.326 251.857 398.287 216.451 363.891C212.185 359.739 208.296 354.817 204.89 349.063C202.15 344.414 200.403 340.3 199.386 336.381C197.127 327.689 198.449 319.995 200.226 309.649C200.236 309.653 200.245 309.656 200.253 309.663C237.726 330.127 281.222 340.205 323.881 337.396C381.125 333.626 449.495 298.915 454.502 238.233C455.144 230.302 454.725 221.928 453.045 213.121C447.636 184.735 430.468 191.128 408.243 192.251C402.745 192.535 397.211 192.69 391.67 192.741C362.287 193.072 332.587 190.55 303.471 188.12C285.331 186.591 267.11 183.829 248.856 181.165C248.88 181.155 248.904 181.145 248.927 181.135C258.45 176.96 248.008 171.614 242.183 170.847C236.499 170.096 229.088 169.261 224.106 172.659C221.793 174.235 220.891 175.854 220.96 177.348C216.98 176.865 213 176.419 209.02 176.023C210.668 166.895 213.944 157.662 221.999 151.915C225.63 149.311 229.194 148.128 232.698 147.847C245.124 146.776 256.946 156.854 269.941 154.149C293.481 149.247 270.489 107.822 262.355 97.8657C258.005 92.551 252.85 88.2303 247.243 85.2891C235.761 79.261 222.439 79.0649 210.475 88.0681C191.723 102.203 185.081 130.331 184.863 152.601C184.798 158.754 185.658 166.956 187.817 174.468C184.873 174.343 181.931 174.251 178.988 174.214C176.168 174.177 173.343 174.18 170.52 174.235C168.437 167.453 165.654 161.066 162.973 156.178C149.848 132.215 126.381 105.628 97.9125 101.189C79.7592 98.3727 65.4611 106.297 56.5287 119.466C52.1658 125.889 49.0886 133.547 47.459 141.816C44.4234 157.297 43.5271 215.416 71.8306 207.093C87.4549 202.502 94.4099 184.756 108.472 178.721C112.425 176.997 116.966 176.216 122.401 176.929C127.391 177.575 131.839 179.34 135.841 181.824C129.007 185.368 123.064 190.189 119.403 196.315C118.119 197.728 117.018 199.692 116.134 202.282C116.051 202.556 115.951 202.85 115.869 203.14C111.577 217.117 113.719 235.109 114.157 250.455C114.885 276.004 114.531 301.042 112.969 326.276C112.857 328.071 112.745 329.87 112.598 331.682C109.934 371.004 104.862 411.604 107.76 451.001C108.503 461.211 110.471 471.15 113.602 480.623C113.926 481.614 114.262 482.598 114.609 483.575L126.169 670.821C116.276 675.831 109.625 686.224 109.963 698.043C110.428 714.359 169.507 712.675 169.042 696.359C173.616 657.362 177.723 601.981 182.035 553.77C191.73 557.513 202.181 560.407 212.37 562.851L219.955 685.716C210.062 690.727 203.411 701.119 203.749 712.939C204.214 729.254 263.294 727.571 262.828 711.255C267.248 673.576 271.232 620.602 275.385 573.579C277.251 573.785 279.115 573.991 280.977 574.204C320.315 578.751 359.603 578.464 398.837 573.051C404.743 572.24 410.754 571.276 416.816 570.147L421.641 648.261C411.748 653.267 405.095 663.663 405.433 675.483C405.9 691.795 464.979 690.111 464.513 673.796C468.404 640.633 471.954 595.621 475.581 553.246C481.778 550.691 487.85 547.878 493.736 544.784L500.42 653.082C490.528 658.089 483.878 668.484 484.216 680.304C484.679 696.62 543.759 694.933 543.296 678.62C549.364 626.87 558.665 511.75 565.034 454.155C568.378 431.953 564.983 408.96 554.814 389.43C573.239 381.387 586.556 373.357 595.728 353.755C599.133 346.476 595.076 327.676 586.942 340.34Z" fill="#F9DDCE"/>
<path d="M586.942 340.34C594.532 328.521 606.821 300.308 595.049 287.366C590.755 287.285 587.912 290.801 587.385 293.043C589.565 277.924 583.223 247.956 569.446 239.721C560.683 234.481 559.659 243.443 559.706 250.164C546.227 220.504 518.869 171.983 479.07 180.384C493.956 187.372 503.96 205.115 511.076 219.179C530.526 257.609 537.352 301.079 531.196 343.657C531.192 343.653 531.189 343.653 531.182 343.65C530.814 346.213 530.411 348.775 529.945 351.331C529.85 351.852 529.749 352.376 529.647 352.897C529.289 354.739 528.887 356.568 528.444 358.384C523.697 354.871 518.504 351.761 512.862 349.12C482.539 334.934 449.36 337.926 417.236 346.287C396.366 351.717 375.939 359.418 357.006 366.149C314.431 381.326 251.857 398.287 216.451 363.891C212.185 359.739 208.296 354.817 204.89 349.063C202.15 344.414 200.403 340.3 199.386 336.381C197.127 327.689 198.449 319.995 200.226 309.649C200.236 309.653 200.245 309.656 200.253 309.663C237.726 330.127 281.222 340.205 323.881 337.396C381.125 333.626 449.495 298.915 454.502 238.233C455.144 230.302 454.725 221.928 453.045 213.121C447.636 184.735 430.468 191.128 408.243 192.251C402.745 192.535 397.211 192.69 391.67 192.741C362.287 193.072 332.587 190.55 303.471 188.12C285.331 186.591 267.11 183.829 248.856 181.165C248.88 181.155 248.904 181.145 248.927 181.135C258.45 176.96 248.008 171.614 242.183 170.847C236.499 170.096 229.088 169.261 224.106 172.659C221.793 174.235 220.891 175.854 220.96 177.348C216.98 176.865 213 176.419 209.02 176.023C210.668 166.895 213.944 157.662 221.999 151.915C225.63 149.311 229.194 148.128 232.698 147.847C245.124 146.776 256.946 156.854 269.941 154.149C293.481 149.247 270.489 107.822 262.355 97.8657C258.005 92.551 252.85 88.2303 247.243 85.2891C235.761 79.261 222.439 79.0649 210.475 88.0681C191.723 102.203 185.081 130.331 184.863 152.601C184.798 158.754 185.658 166.956 187.817 174.468C184.873 174.343 181.931 174.251 178.988 174.214C176.168 174.177 173.343 174.18 170.52 174.235C168.437 167.453 165.654 161.066 162.973 156.178C149.848 132.215 126.381 105.628 97.9125 101.189C79.7592 98.3727 65.4611 106.297 56.5287 119.466C52.1658 125.889 49.0886 133.547 47.459 141.816C44.4234 157.297 43.5271 215.416 71.8306 207.093C87.4549 202.502 94.4099 184.756 108.472 178.721C112.425 176.997 116.966 176.216 122.401 176.929C127.391 177.575 131.839 179.34 135.841 181.824C129.007 185.368 123.064 190.189 119.403 196.315C118.119 197.728 117.018 199.692 116.134 202.282C116.051 202.556 115.951 202.85 115.869 203.14C111.577 217.117 113.719 235.109 114.157 250.455C114.885 276.004 114.531 301.042 112.969 326.276C112.857 328.071 112.745 329.87 112.598 331.682C109.934 371.004 104.862 411.604 107.76 451.001C108.503 461.211 110.471 471.15 113.602 480.623C113.926 481.614 114.262 482.598 114.609 483.575L126.169 670.821C116.276 675.831 109.625 686.224 109.963 698.043C110.428 714.359 169.507 712.675 169.042 696.359C173.616 657.362 177.723 601.981 182.035 553.77C191.73 557.513 202.181 560.407 212.37 562.851L219.955 685.716C210.062 690.727 203.411 701.119 203.749 712.939C204.214 729.254 263.294 727.571 262.828 711.255C267.248 673.576 271.232 620.602 275.385 573.579C277.251 573.785 279.115 573.991 280.977 574.204C320.315 578.751 359.603 578.464 398.837 573.051C404.743 572.24 410.754 571.276 416.816 570.147L421.641 648.261C411.748 653.267 405.095 663.663 405.433 675.483C405.9 691.795 464.979 690.111 464.513 673.796C468.404 640.633 471.954 595.621 475.581 553.246C481.778 550.691 487.85 547.878 493.736 544.784L500.42 653.082C490.528 658.089 483.878 668.484 484.216 680.304C484.679 696.62 543.759 694.933 543.296 678.62C549.364 626.87 558.665 511.75 565.034 454.155C568.378 431.953 564.983 408.96 554.814 389.43C573.239 381.387 586.556 373.357 595.728 353.755C599.133 346.476 595.076 327.676 586.942 340.34Z" fill="url(#paint1_linear_440_3)"/>
<path d="M189.063 174.526C195.714 174.84 202.367 175.364 209.021 176.023C210.669 166.895 213.945 157.662 222.001 151.915C225.632 149.312 229.196 148.128 232.7 147.848C245.126 146.776 256.947 156.854 269.942 154.15C293.483 149.247 270.49 107.823 262.357 97.8661C258.007 92.5514 252.851 88.2308 247.244 85.2895C235.762 79.2615 222.44 79.0653 210.476 88.0685C191.725 102.204 185.082 130.332 184.865 152.601C184.8 158.754 185.659 166.956 187.818 174.468C188.233 174.489 188.648 174.505 189.063 174.526Z" fill="#A96036"/>
<path d="M189.063 174.526C195.714 174.84 202.367 175.364 209.021 176.023C210.669 166.895 213.945 157.662 222.001 151.915C225.632 149.312 229.196 148.128 232.7 147.848C245.126 146.776 256.947 156.854 269.942 154.15C293.483 149.247 270.49 107.823 262.357 97.8661C258.007 92.5514 252.851 88.2308 247.244 85.2895C235.762 79.2615 222.44 79.0653 210.476 88.0685C191.725 102.204 185.082 130.332 184.865 152.601C184.8 158.754 185.659 166.956 187.818 174.468C188.233 174.489 188.648 174.505 189.063 174.526Z" fill="url(#paint2_linear_440_3)"/>
<path d="M172.952 184.182C172.364 180.858 171.522 177.501 170.52 174.235C168.437 167.453 165.654 161.067 162.973 156.178C149.848 132.215 126.381 105.629 97.9125 101.19C79.7592 98.3734 65.4611 106.298 56.5287 119.466C52.1658 125.89 49.0886 133.547 47.459 141.817C44.4234 157.297 43.5271 215.417 71.8306 207.093C87.4549 202.502 94.4099 184.756 108.472 178.722C112.425 176.997 116.966 176.216 122.401 176.93C127.391 177.575 131.839 179.34 135.841 181.825C142.073 185.693 147.221 191.298 151.644 197.103C157.288 204.514 167.316 221.502 172.71 203.006C174.311 197.526 174.14 190.919 172.952 184.182Z" fill="#A96036"/>
<path d="M172.952 184.182C172.364 180.858 171.522 177.501 170.52 174.235C168.437 167.453 165.654 161.067 162.973 156.178C149.848 132.215 126.381 105.629 97.9125 101.19C79.7592 98.3734 65.4611 106.298 56.5287 119.466C52.1658 125.89 49.0886 133.547 47.459 141.817C44.4234 157.297 43.5271 215.417 71.8306 207.093C87.4549 202.502 94.4099 184.756 108.472 178.722C112.425 176.997 116.966 176.216 122.401 176.93C127.391 177.575 131.839 179.34 135.841 181.825C142.073 185.693 147.221 191.298 151.644 197.103C157.288 204.514 167.316 221.502 172.71 203.006C174.311 197.526 174.14 190.919 172.952 184.182Z" fill="url(#paint3_linear_440_3)"/>
<path d="M196.781 160.921C193.622 164.579 190.752 169.387 189.062 174.526C195.714 174.84 202.367 175.364 209.021 176.023C210.669 166.895 213.945 157.662 222 151.915C225.632 149.315 229.196 148.128 232.7 147.848C219.597 146.34 205.354 150.972 196.781 160.921Z" fill="#8B4F2B"/>
<path d="M196.781 160.921C193.622 164.579 190.752 169.387 189.062 174.526C195.714 174.84 202.367 175.364 209.021 176.023C210.669 166.895 213.945 157.662 222 151.915C225.632 149.315 229.196 148.128 232.7 147.848C219.597 146.34 205.354 150.972 196.781 160.921Z" fill="#0F1011"/>
<path d="M151.646 197.103C157.29 204.514 167.319 221.502 172.713 203.006C174.313 197.526 174.143 190.923 172.955 184.182C169.378 180.321 164.994 177.092 160.527 174.678C158.647 173.66 156.753 172.788 154.898 172.075C139.865 166.273 121.775 169.505 108.475 178.722C112.428 176.997 116.969 176.216 122.404 176.93C127.393 177.575 131.842 179.34 135.843 181.825C142.075 185.693 147.224 191.298 151.646 197.103Z" fill="#8B4F2B"/>
<path d="M151.646 197.103C157.29 204.514 167.319 221.502 172.713 203.006C174.313 197.526 174.143 190.923 172.955 184.182C169.378 180.321 164.994 177.092 160.527 174.678C158.647 173.66 156.753 172.788 154.898 172.075C139.865 166.273 121.775 169.505 108.475 178.722C112.428 176.997 116.969 176.216 122.404 176.93C127.393 177.575 131.842 179.34 135.843 181.825C142.075 185.693 147.224 191.298 151.646 197.103Z" fill="#0F1011"/>
<path d="M122.872 237.142C122.776 237.372 122.685 237.615 122.601 237.865C117.966 260.76 168.023 335.158 199.388 336.382C197.129 327.69 198.452 319.995 200.229 309.65C172.851 294.686 138.013 268.347 122.872 237.142Z" fill="#0F1011"/>
<g filter="url(#filter0_d_440_3)">
<path d="M432.226 240.77C440.688 242.105 448.173 241.094 454.502 238.234C455.145 230.303 454.725 221.928 453.045 213.121C447.636 184.736 430.468 191.129 408.243 192.252C402.745 192.536 397.211 192.691 391.67 192.742C391.856 196.106 392.39 199.568 393.323 203.124C398.266 222.107 412.472 237.656 432.226 240.77Z" fill="black"/>
</g>
<path d="M179.465 552.335C181.645 553.018 183.061 549.715 181.027 548.629C175.618 545.735 170.65 542.25 166.73 537.49C165.536 536.039 163.088 536.915 162.648 538.568C162.271 539.988 161.915 541.942 160.651 542.889C160.636 542.899 160.622 542.912 160.607 542.922C159.275 543.876 157.675 543.213 156.555 542.26C155.385 541.266 154.799 539.941 154.516 538.49C154.098 536.347 154.346 533.93 154.357 531.915C154.369 529.507 150.649 528.909 150.093 531.336C149.835 532.466 148.92 532.976 147.9 533.044C146.998 533.101 146.014 532.814 145.33 532.297C144.228 531.465 143.657 530.211 143.389 528.835C143.06 527.148 143.188 525.281 143.348 523.791C143.556 521.853 141.09 521.39 139.896 522.36C139.231 522.901 138.433 522.979 137.648 522.776C136.246 522.415 134.882 521.153 134.374 520.031C134.115 519.46 133.949 518.868 133.857 518.266C133.448 515.612 134.438 512.722 135.04 510.23C135.238 509.409 135.077 508.361 134.393 507.782C131.547 505.385 128.856 502.802 126.54 499.881C125.4 498.445 124.334 496.947 123.329 495.412C122.222 493.722 120.857 492.285 119.647 490.665C119.235 490.114 118.26 490.405 118.468 491.162C118.951 492.917 119.319 494.78 120.17 496.396C121.153 498.255 122.266 500.061 123.441 501.805C125.414 504.733 127.539 507.566 129.855 510.23C129.694 510.92 129.548 511.626 129.425 512.347C128.726 516.474 128.847 520.964 131.792 524.081C133.781 526.184 136.58 527.249 139.225 526.833C139.409 530.738 140.765 534.792 144.61 536.343C146.33 537.04 148.249 537.114 149.944 536.6C150.288 540.796 151.877 544.846 156.028 546.662C158.276 547.645 160.875 547.767 163.018 546.459C163.551 546.134 164.018 545.745 164.433 545.313C164.918 544.806 165.33 544.238 165.691 543.632C169.546 547.574 174.144 550.661 179.465 552.335Z" fill="#0F1011"/>
<g filter="url(#filter1_d_440_3)">
<circle cx="243" cy="188" r="30" fill="white"/>
<circle cx="243" cy="188" r="30" fill="url(#paint4_linear_440_3)"/>
<circle cx="204" cy="218" r="30" fill="white"/>
<circle cx="204" cy="218" r="30" fill="url(#paint5_linear_440_3)"/>
<circle cx="242.5" cy="187.5" r="9.5" fill="#0F1011"/>
<circle cx="203" cy="220" r="12" fill="#0F1011"/>
</g>
<path d="M184.998 35.4248H325.842C372.944 35.4248 394.159 35.5435 416.957 42.6973C440.707 51.4199 459.42 70.133 468.145 93.8818C475.3 116.679 475.42 137.899 475.42 185.003V325.847C475.42 372.953 475.3 394.166 468.145 416.967C459.421 440.713 440.711 459.423 416.967 468.144C394.165 475.304 372.953 475.425 325.842 475.425H184.998C137.886 475.425 116.67 475.304 93.8721 468.144C70.1262 459.423 51.4146 440.711 42.6924 416.962C35.5386 394.164 35.4199 372.949 35.4199 325.847V185.003C35.4199 137.9 35.5391 116.679 42.6943 93.8828C51.4179 70.1351 70.1302 51.4227 93.8779 42.6992C116.674 35.5439 137.892 35.4248 184.998 35.4248Z" stroke="white" stroke-width="2"/>
</g>
<defs>
<filter id="filter0_d_440_3" x="387.67" y="190.853" width="71.1191" height="58.499" filterUnits="userSpaceOnUse" color-interpolation-filters="sRGB">
<feFlood flood-opacity="0" result="BackgroundImageFix"/>
<feColorMatrix in="SourceAlpha" type="matrix" values="0 0 0 0 0 0 0 0 0 0 0 0 0 0 0 0 0 0 127 0" result="hardAlpha"/>
<feOffset dy="4"/>
<feGaussianBlur stdDeviation="2"/>
<feColorMatrix type="matrix" values="0 0 0 0 0 0 0 0 0 0 0 0 0 0 0 0 0 0 0.25 0"/>
<feBlend mode="normal" in2="BackgroundImageFix" result="effect1_dropShadow_440_3"/>
<feBlend mode="normal" in="SourceGraphic" in2="effect1_dropShadow_440_3" result="shape"/>
</filter>
<filter id="filter1_d_440_3" x="170" y="158" width="107" height="98" filterUnits="userSpaceOnUse" color-interpolation-filters="sRGB">
<feFlood flood-opacity="0" result="BackgroundImageFix"/>
<feColorMatrix in="SourceAlpha" type="matrix" values="0 0 0 0 0 0 0 0 0 0 0 0 0 0 0 0 0 0 127 0" result="hardAlpha"/>
<feOffset dy="4"/>
<feGaussianBlur stdDeviation="2"/>
<feColorMatrix type="matrix" values="0 0 0 0 0 0 0 0 0 0 0 0 0 0 0 0 0 0 0.25 0"/>
<feBlend mode="normal" in2="BackgroundImageFix" result="effect1_dropShadow_440_3"/>
<feBlend mode="normal" in="SourceGraphic" in2="effect1_dropShadow_440_3" result="shape"/>
</filter>
<linearGradient id="paint0_linear_440_3" x1="256" y1="0" x2="256" y2="512" gradientUnits="userSpaceOnUse">
<stop stop-color="#57B8EA"/>
<stop offset="1" stop-color="#2765D9"/>
</linearGradient>
<linearGradient id="paint1_linear_440_3" x1="322.962" y1="724.366" x2="322.962" y2="81" gradientUnits="userSpaceOnUse">
<stop stop-color="#617489"/>
<stop offset="0.0989583" stop-color="#3E5670"/>
<stop offset="1" stop-color="#0F1011"/>
</linearGradient>
<linearGradient id="paint2_linear_440_3" x1="232.56" y1="176.023" x2="232.56" y2="81.0004" gradientUnits="userSpaceOnUse">
<stop stop-color="#617489"/>
<stop offset="0.0989583" stop-color="#3E5670"/>
<stop offset="1" stop-color="#0F1011"/>
</linearGradient>
<linearGradient id="paint3_linear_440_3" x1="109.939" y1="211.344" x2="109.939" y2="100.623" gradientUnits="userSpaceOnUse">
<stop stop-color="#617489"/>
<stop offset="0.0989583" stop-color="#3E5670"/>
<stop offset="1" stop-color="#0F1011"/>
</linearGradient>
<linearGradient id="paint4_linear_440_3" x1="243" y1="158" x2="243" y2="218" gradientUnits="userSpaceOnUse">
<stop stop-color="#E0E0E0"/>
<stop offset="0.0001" stop-color="white"/>
<stop offset="1" stop-color="#D6D7D8"/>
</linearGradient>
<linearGradient id="paint5_linear_440_3" x1="204" y1="188" x2="204" y2="248" gradientUnits="userSpaceOnUse">
<stop stop-color="#E0E0E0"/>
<stop offset="0.0001" stop-color="white"/>
<stop offset="1" stop-color="#D6D7D8"/>
</linearGradient>
</defs>
</svg>
